<svg xmlns="http://www.w3.org/2000/svg" xmlns:xlink="http://www.w3.org/1999/xlink" width="128" height="128" viewBox="0 0 128 128"><defs><clipPath id="b"><rect width="128" height="128"/></clipPath></defs><g id="a" clip-path="url(#b)"><rect width="128" height="128" fill="#fff"/><path d="M84.341,353.231a5.969,5.969,0,0,1-4.524-1.955,6.038,6.038,0,0,1-1.454-4.768,7.719,7.719,0,0,1,7.473-6.723,5.971,5.971,0,0,1,4.527,1.956,6.035,6.035,0,0,1,1.452,4.767A7.721,7.721,0,0,1,84.341,353.231Zm-48.641,0a5.969,5.969,0,0,1-4.524-1.955,6.039,6.039,0,0,1-1.453-4.769,7.719,7.719,0,0,1,7.473-6.723,5.97,5.97,0,0,1,4.526,1.956,6.035,6.035,0,0,1,1.452,4.767A7.719,7.719,0,0,1,35.7,353.231Zm-7.448-7.684H25.906a2.421,2.421,0,0,1-2.461-2.759l1.01-9.075H11.583a2.105,2.105,0,0,1,0-4.21h24.45a2.382,2.382,0,1,0,0-4.765H25.451L25.644,323H-4V259H124v64H110.466a20.057,20.057,0,0,1-.014,4.766l-1.181,9.814a3,3,0,0,1,1.451,3.855l-.853,2.361a2.649,2.649,0,0,1-2.433,1.75H96.469a2.045,2.045,0,0,1-1.949-1.309l-.981-2.56a7.484,7.484,0,0,0-7.2-4.807,9.921,9.921,0,0,0-8.719,5.661l-.725,1.493a2.653,2.653,0,0,1-2.347,1.522H44.909c.028-.283.042-.57.042-.853a6.7,6.7,0,0,0-6.87-6.827H36.8a8.845,8.845,0,0,0-8.548,7.681ZM50.229,323H72.823l-1.53,13.8h1.921L74.746,323H72.823l2.823-25.459a2.416,2.416,0,0,0-2.446-2.774H31.553a3.179,3.179,0,0,0-3.073,2.774l-.313,2.732H49.46a2.385,2.385,0,0,1,2.375,2.389v.1a2.385,2.385,0,0,1-2.375,2.39H24.668a2.105,2.105,0,1,0,0,4.21h2.489l-.313,2.774H46.4a2.378,2.378,0,0,1,2.375,2.376v.142a2.378,2.378,0,0,1-2.375,2.375l-27.4.171a2.105,2.105,0,0,0,0,4.21H25.82L25.644,323H43.315a2.18,2.18,0,0,1,2.077-2.829h2.759A2.179,2.179,0,0,1,50.229,323Zm-6.914,0a2.2,2.2,0,0,0,2.077,1.537h2.759A2.2,2.2,0,0,0,50.229,323H43.315Zm31.431,0h35.72a18.393,18.393,0,0,0-1.849-6.171l-3.982-7.069a15.6,15.6,0,0,0-13.87-7.853h-.211l-7.923.1-1.422-1.722h-3.94ZM2.8,315.059a2.176,2.176,0,0,0-2.181,2.092v.178A2.175,2.175,0,0,0,2.8,319.422H5.552a2.181,2.181,0,0,0,0-4.362Zm12.043-5.037a2.181,2.181,0,0,0,0,4.362H17.6a2.181,2.181,0,1,0,0-4.362Zm4.7-10.356a2.182,2.182,0,0,0,0,4.363H22.3a2.182,2.182,0,0,0,0-4.363Zm-.806,40.118h-2.75a2.181,2.181,0,1,1,0-4.362h2.75a2.181,2.181,0,0,1,0,4.362Zm2.416-11.866h-2.75a2.181,2.181,0,1,1,0-4.362h2.75a2.181,2.181,0,0,1,0,4.362Zm-12.05,0H6.359a2.181,2.181,0,1,1,0-4.362h2.75a2.181,2.181,0,0,1,0,4.362Zm92.312-6.012h0a1.768,1.768,0,0,1-.385-.043l-19.472-4.3a2.047,2.047,0,0,1-1.593-2.3L80.6,309.6a2.705,2.705,0,0,1,2.6-2.351c.041,0,.084,0,.126,0l10.355.527a6.665,6.665,0,0,1,5.789,3.727l3.74,7.737a1.749,1.749,0,0,1-.145,1.709A1.99,1.99,0,0,1,101.42,321.906Zm-43.4-10.767H55.278a2.183,2.183,0,1,1,0-4.367h2.745a2.183,2.183,0,0,1,0,4.367Z" transform="translate(4 -259)" fill="red"/><path d="M124,351.233H-4v-64H25.644l-.193,1.738H36.033a2.382,2.382,0,1,1,0,4.765H11.583a2.105,2.105,0,1,0,0,4.21H24.455l-1.01,9.075a2.421,2.421,0,0,0,2.461,2.759h2.347a8.657,8.657,0,0,1,2.861-5.43A8.53,8.53,0,0,1,36.8,302.1h1.281a6.7,6.7,0,0,1,6.87,6.827c0,.28-.014.567-.042.853H74.551a2.653,2.653,0,0,0,2.347-1.522l.725-1.493a10.066,10.066,0,0,1,3.613-4.106,9.384,9.384,0,0,1,5.106-1.555,7.9,7.9,0,0,1,4.409,1.3,7.337,7.337,0,0,1,2.788,3.507l.981,2.561a2.045,2.045,0,0,0,1.949,1.309h10.966a2.649,2.649,0,0,0,2.433-1.75l.853-2.361a3,3,0,0,0-1.451-3.855L110.452,292a20.06,20.06,0,0,0,.014-4.767H124v64ZM85.836,304.017a7.719,7.719,0,0,0-7.473,6.723,6.038,6.038,0,0,0,1.454,4.768,5.969,5.969,0,0,0,4.524,1.955,7.721,7.721,0,0,0,7.474-6.724,6.035,6.035,0,0,0-1.452-4.767A5.971,5.971,0,0,0,85.836,304.017Zm-48.64,0a7.719,7.719,0,0,0-7.473,6.723,6.039,6.039,0,0,0,1.453,4.769,5.969,5.969,0,0,0,4.524,1.955,7.719,7.719,0,0,0,7.473-6.724,6.035,6.035,0,0,0-1.452-4.767A5.97,5.97,0,0,0,37.2,304.017Zm-21.2-4.362a2.181,2.181,0,1,0,0,4.362h2.75a2.181,2.181,0,0,0,0-4.362Zm2.416-11.866a2.181,2.181,0,1,0,0,4.362h2.75a2.181,2.181,0,0,0,0-4.362Zm-12.05,0a2.181,2.181,0,1,0,0,4.362h2.75a2.181,2.181,0,0,0,0-4.362Zm66.856,13.243H71.294l1.53-13.8H50.229a2.179,2.179,0,0,0-2.077-2.828H45.392a2.18,2.18,0,0,0-2.078,2.828H25.644l.176-1.59H19.007a2.105,2.105,0,0,1,0-4.21l27.4-.171a2.378,2.378,0,0,0,2.375-2.375v-.142a2.378,2.378,0,0,0-2.375-2.376H26.844l.313-2.774H24.668a2.105,2.105,0,0,1,0-4.21H49.46a2.385,2.385,0,0,0,2.375-2.389v-.1a2.385,2.385,0,0,0-2.375-2.39H28.167l.313-2.731A3.179,3.179,0,0,1,31.553,259H73.2a2.416,2.416,0,0,1,2.446,2.774l-2.822,25.458h1.923l-1.532,13.8ZM55.278,271.005a2.183,2.183,0,1,0,0,4.367h2.745a2.183,2.183,0,0,0,0-4.367ZM48.152,288.77H45.392a2.2,2.2,0,0,1-2.078-1.538h6.914A2.2,2.2,0,0,1,48.152,288.77Zm62.314-1.538H74.746l2.522-22.713h3.94l1.422,1.722,7.923-.1h.211a15.6,15.6,0,0,1,13.87,7.853l3.982,7.07a18.393,18.393,0,0,1,1.849,6.169ZM83.2,271.485a2.705,2.705,0,0,0-2.6,2.351L79.97,279.5a2.047,2.047,0,0,0,1.593,2.3l19.472,4.3a1.769,1.769,0,0,0,.385.043,1.99,1.99,0,0,0,1.646-.951,1.749,1.749,0,0,0,.145-1.709l-3.74-7.737a6.665,6.665,0,0,0-5.789-3.727l-10.355-.526C83.284,271.487,83.242,271.485,83.2,271.485ZM5.552,283.655H2.8a2.175,2.175,0,0,1-2.181-2.092v-.178A2.175,2.175,0,0,1,2.8,279.293H5.552a2.181,2.181,0,0,1,0,4.362ZM17.6,278.617h-2.75a2.181,2.181,0,0,1,0-4.362H17.6a2.181,2.181,0,1,1,0,4.362Zm4.7-10.355h-2.75a2.182,2.182,0,0,1,0-4.363H22.3a2.182,2.182,0,0,1,0,4.363Z" transform="translate(4 -223.232)" fill="#fff"/></g></svg>